<svg display="none" xmlns="http://www.w3.org/2000/svg">
    <symbol id="phone" viewBox="0 0 512.021 512.021">
        <g>
            <g>
                <path d="m367.988 512.021c-16.528 0-32.916-2.922-48.941-8.744-70.598-25.646-136.128-67.416-189.508-120.795s-95.15-118.91-120.795-189.508c-8.241-22.688-10.673-46.108-7.226-69.612 3.229-22.016 11.757-43.389 24.663-61.809 12.963-18.501 30.245-33.889 49.977-44.5 21.042-11.315 44.009-17.053 68.265-17.053 7.544 0 14.064 5.271 15.645 12.647l25.114 117.199c1.137 5.307-.494 10.829-4.331 14.667l-42.913 42.912c40.482 80.486 106.17 146.174 186.656 186.656l42.912-42.913c3.838-3.837 9.361-5.466 14.667-4.331l117.199 25.114c7.377 1.581 12.647 8.101 12.647 15.645 0 24.256-5.738 47.224-17.054 68.266-10.611 19.732-25.999 37.014-44.5 49.977-18.419 12.906-39.792 21.434-61.809 24.663-6.899 1.013-13.797 1.518-20.668 1.519zm-236.349-479.321c-31.995 3.532-60.393 20.302-79.251 47.217-21.206 30.265-26.151 67.49-13.567 102.132 49.304 135.726 155.425 241.847 291.151 291.151 34.641 12.584 71.866 7.64 102.132-13.567 26.915-18.858 43.685-47.256 47.217-79.251l-95.341-20.43-44.816 44.816c-4.769 4.769-12.015 6.036-18.117 3.168-95.19-44.72-172.242-121.772-216.962-216.962-2.867-6.103-1.601-13.349 3.168-18.117l44.816-44.816z"/>
            </g>
        </g>
    </symbol>

    <symbol id="brain" viewBox="0 0 55 60">
        <g>
           <g id="Page-1" stroke="none" stroke-width="1" fill-rule="evenodd">
                <g id="050---Human-Brain" transform="translate(0.000000, -1.000000)" fill-rule="nonzero">
                <path d="M55,24.067 C55.0589204,21.2011574 54.7063276,18.3416867 53.953,15.576 C52.9424252,12.1384648 50.8449656,9.12104233 47.975,6.976 C42.33,2.553 37.054,0.72 30.886,1.033 C27.6323429,1.25832648 24.3994413,1.72055152 21.213,2.416 C16.702,3.323 13.425,4.909 11.194,7.265 C9.42599143,9.14769443 8.06080295,11.3714 7.182,13.8 C6.80950037,14.8700729 6.50620773,15.9629953 6.274,17.072 L6.194,17.418 C5.98338059,18.1968975 5.69909851,18.9539785 5.345,19.679 C5.139,20.141 4.932,20.603 4.753,21.079 C4.5211656,21.6071418 4.42855272,22.1858863 4.484,22.76 C4.68745785,23.65331 5.20527991,24.4437073 5.943,24.987 C6.434,25.437 6.756,25.752 6.759,26.04 C6.7199014,26.1891608 6.6610473,26.3324285 6.584,26.466 C5.38644786,28.9909878 3.91852836,31.3786202 2.206,33.587 C1.488,34.464 0.736,35.487 0.889,36.526 C1.10754916,37.3144834 1.62820814,37.98498 2.338,38.392 C2.66888529,38.6198506 3.01769394,38.8205075 3.381,38.992 C3.812,39.212 4.535,39.58 4.581,39.845 C4.64581148,40.1817201 4.6078326,40.5301502 4.472,40.845 C4.323,41.157 4.172,41.427 4.037,41.662 C3.67,42.311 3.055,43.399 3.98,44.177 C4.196,44.367 4.566,44.658 4.904,44.917 C4.65425141,45.3562306 4.54207907,45.8603094 4.582,46.364 C4.636274,46.7554956 4.84929325,47.1073933 5.171,47.337 C5.395,47.496 5.634,47.637 5.871,47.769 C6.459,48.104 6.688,48.261 6.771,48.569 C6.82495806,48.9763489 6.78807579,49.3905915 6.663,49.782 C6.605,50.045 6.549,50.307 6.514,50.569 C6.41266812,51.4785492 6.52744641,52.3991738 6.849,53.256 C7.36609395,55.1565304 9.28142641,56.3188299 11.206,55.9 C14.0613687,55.2114782 16.8774695,54.3692517 19.642,53.377 C21.89,54.705 23.311,58.722 23.681,60.229 C23.7906017,60.6762787 24.1914886,60.9908779 24.652,60.991 L49.752,60.922 C50.0685974,60.9210151 50.3660269,60.7701651 50.5538666,60.5153101 C50.7417064,60.260455 50.797765,59.9317037 50.705,59.629 C50.4570825,58.9465429 50.1140285,58.3025172 49.686,57.716 C49.4496464,57.3767404 49.2358521,57.0223095 49.046,56.655 C48.5951858,55.7326557 48.217362,54.7763937 47.916,53.795 C47.345219,51.8633659 46.950935,49.8839128 46.738,47.881 C46.3836235,44.8907153 46.8352178,41.8600621 48.046,39.103 C48.7861466,37.5763366 49.6969609,36.1384912 50.761,34.817 C51.361,34.004 51.988,33.164 52.55,32.277 C54.1280805,29.827756 54.9777409,26.9805269 55,24.067 Z M49.156,33.634 C48.0006737,35.0764128 47.0136285,36.6458884 46.214,38.312 C44.8608317,41.3960049 44.3567624,44.7856985 44.754,48.13 C44.977919,50.2515557 45.3949819,52.3482504 46,54.394 C46.3314488,55.4718275 46.7460263,56.5223134 47.24,57.536 C47.4674742,57.9832931 47.725067,58.4146191 48.011,58.827 L48.083,58.936 L25.408,59 C24.7418963,56.6270958 23.5353853,54.4406583 21.883,52.612 C22.138,52.523 22.383,52.44 22.604,52.36 C23.362,52.095 23.935,51.894 24.221,51.804 C28.508,50.458 30.652,48.51 30.594,46.013 C30.5615395,45.4692606 30.1146638,45.0428959 29.57,45.036 C29.3047583,45.0422894 29.0528879,45.1537272 28.8698363,45.3457814 C28.6867846,45.5378357 28.5875579,45.7947619 28.594,46.06 C28.618,47.09 27.775,48.592 23.62,49.896 C23.32,49.99 22.729,50.196 21.942,50.473 C21.229,50.723 20.354,51.029 19.397,51.356 C16.5801243,52.3748121 13.7102779,53.24074 10.8,53.95 C9.86304892,54.1305498 8.9511242,53.537622 8.736,52.608 C8.52005899,52.0466195 8.43755494,51.4427309 8.495,50.844 C8.522,50.637 8.569,50.43 8.615,50.222 C8.82018121,49.5279987 8.85245273,48.7943366 8.709,48.085 C8.42193753,47.1668228 7.74850579,46.4196203 6.865,46.039 L6.651,45.916 C6.75809025,45.6976235 6.88637287,45.4902947 7.034,45.297 C7.20035925,45.0845495 7.27380157,44.8138856 7.23764592,44.5464845 C7.20149027,44.2790834 7.05880559,44.0376423 6.842,43.877 C6.602,43.699 6.03,43.271 5.62,42.942 C5.671,42.849 5.728,42.742 5.781,42.653 C5.935,42.382 6.11,42.069 6.281,41.712 C6.60083456,41.0127265 6.69485807,40.2311779 6.55,39.476 C6.317,38.249 5.15,37.651 4.289,37.215 C3.99871366,37.0774245 3.7204146,36.9158639 3.457,36.732 C3.24972627,36.587789 3.05320853,36.4287033 2.869,36.256 C2.869,36.106 3.029,35.74 3.798,34.801 C5.58474909,32.4972454 7.11668505,30.0067179 8.367,27.373 C8.60777144,26.9607266 8.74246385,26.4951444 8.759,26.018 C8.65706311,25.0114038 8.12234739,24.0989196 7.294,23.518 C6.894,23.148 6.508,22.798 6.465,22.49 C6.46896694,22.248066 6.5234659,22.009633 6.625,21.79 C6.789,21.356 6.98,20.93 7.171,20.504 C7.57865581,19.6627472 7.9038418,18.7839747 8.142,17.88 L8.223,17.531 C8.4365467,16.5044803 8.71578786,15.4927322 9.059,14.502 C9.84283928,12.3240431 11.0634761,10.329236 12.646,8.64 C14.583,6.6 17.515,5.2 21.607,4.377 C24.6970954,3.70073737 27.8324216,3.25087605 30.988,3.031 C36.646,2.731 41.503,4.445 46.739,8.553 C49.2832497,10.4288003 51.1408132,13.0884855 52.026,16.123 C52.7275753,18.7011654 53.0555844,21.3666604 53,24.038 C52.982478,26.5854621 52.2406031,29.0753732 50.861,31.217 C50.337,32.039 49.735,32.85 49.153,33.634 L49.156,33.634 Z" id="Shape"/><path d="M21,18 L22,18 C22.5522847,18 23,17.5522847 23,17 C23,16.4477153 22.5522847,16 22,16 L21,16 C19.3431458,16 18,17.3431458 18,19 L18,20 C18,21.6568542 19.3431458,23 21,23 L22,23 C22.5522847,23 23,22.5522847 23,22 C23,21.4477153 22.5522847,21 22,21 L21,21 C20.4477153,21 20,20.5522847 20,20 L20,19 C20,18.4477153 20.4477153,18 21,18 Z" id="Shape"/><path d="M28,15 C27.4477153,15 27,15.4477153 27,16 L27,18 C27,18.5522847 26.5522847,19 26,19 L25,19 C24.4477153,19 24,19.4477153 24,20 C24,20.5522847 24.4477153,21 25,21 L26,21 C27.6568542,21 29,19.6568542 29,18 L29,16 C29,15.4477153 28.5522847,15 28,15 Z" id="Shape"/><path d="M32,15 L32,14 C32,12.3431458 30.6568542,11 29,11 L27,11 C25.3431458,11 24,12.3431458 24,14 L24,15 C24,15.5522847 24.4477153,16 25,16 C25.5522847,16 26,15.5522847 26,15 L26,14 C26,13.4477153 26.4477153,13 27,13 L29,13 C29.5522847,13 30,13.4477153 30,14 L30,15 C30,15.5522847 30.4477153,16 31,16 C31.5522847,16 32,15.5522847 32,15 Z" id="Shape"/><path d="M35,22 L34,22 C33.4477153,22 33,21.5522847 33,21 L33,20 C33,19.4477153 32.5522847,19 32,19 C31.4477153,19 31,19.4477153 31,20 L31,21 C31,22.6568542 32.3431458,24 34,24 L35,24 C35.5522847,24 36,23.5522847 36,23 C36,22.4477153 35.5522847,22 35,22 Z" id="Shape"/><path d="M40,19 C40,18.4477153 39.5522847,18 39,18 L38,18 C37.4477153,18 37,17.5522847 37,17 C37,16.4477153 37.4477153,16 38,16 L39,16 C39.5522847,16 40,15.5522847 40,15 C40,14.4477153 39.5522847,14 39,14 L38,14 C36.3431458,14 35,15.3431458 35,17 C35,18.6568542 36.3431458,20 38,20 L39,20 C39.5522847,20 40,19.5522847 40,19 Z" id="Shape"/><path d="M43,19 C42.4477153,19 42,19.4477153 42,20 L42,22 C42,22.5522847 41.5522847,23 41,23 L40,23 C39.4477153,23 39,23.4477153 39,24 C39,24.5522847 39.4477153,25 40,25 L41,25 C42.6568542,25 44,23.6568542 44,22 L44,20 C44,19.4477153 43.5522847,19 43,19 Z" id="Shape"/><path d="M50.96,22 C50.96,21.984 50.952,21.971 50.951,21.955 C50.8613293,20.1680696 50.5769805,18.3962546 50.103,16.671 C49.330047,14.0465827 47.7163132,11.7487776 45.51,10.131 C40.987,6.583 36.886,5 32.209,5 C31.841,5 31.469,5.01 31.088,5.028 C30.747,5.046 30.406,5.085 30.065,5.113 C30.042,5.113 30.023,5.1 30,5.1 C29.9475281,5.1057928 29.8956636,5.11616569 29.845,5.131 C27.2093501,5.38522514 24.5901741,5.78820099 22,6.338 C20.8640553,6.56172971 19.7463099,6.86957765 18.656,7.259 C18.633,7.268 18.61,7.273 18.588,7.283 C16.9021152,7.83756992 15.366481,8.77270543 14.1,10.016 C12.8740106,11.3326751 11.8974814,12.8611704 11.218,14.527 C11.1873174,14.5834274 11.1621991,14.6427067 11.143,14.704 C11.076,14.868 10.999,15.023 10.937,15.19 C10.63,16.023 10.147,18.097 10.086,18.358 C9.861,19.477 9.303,23.312 11.572,25.718 C13.012,27.244 15.214,27.808 18.106,27.398 L19.452,27.206 C25.868,26.283 29.088,25.82 31.859,28.53 C32.392,29.051 32.938,29.583 33.506,30.1 C32.877,32.078 32.061,36.3 35.406,38.8 C39,41.5 39,42.231 39,44 C38.9980979,44.3475069 39.1767435,44.6710847 39.4718336,44.8546237 C39.7669236,45.0381628 40.1361412,45.0553431 40.447,44.9 C40.709,44.764 43,43.488 43,39 C43,36.545 44.83,34.423 46.637,32.667 L46.667,32.64 C47.6468732,31.9673659 48.4943659,31.1198732 49.167,30.14 C49.8924722,28.9963865 50.4113612,27.7341967 50.7,26.411 C50.7591015,26.2820309 50.7897945,26.141866 50.79,26 C50.9156016,25.3440544 50.9858489,24.6787126 51,24.011 C51.01,23.34 50.995,22.675 50.959,22.018 C50.9597998,22.012035 50.9601341,22.0060169 50.96,22 Z M41,39 C41.0169618,39.8317031 40.8980655,40.6605991 40.648,41.454 C40.181,40.285 39.099,39.074 36.6,37.199 C34.613,35.711 34.753,33.237 35.182,31.499 C37.0555389,33.0028737 39.3796838,33.8342837 41.782,33.86 C42.1715681,33.8571151 42.5607375,33.8344192 42.948,33.792 C41.7464518,35.2681717 41.0621541,37.0976494 41,39 Z M47.48,29.074 C46.7801377,30.1229793 45.7902606,30.9457343 44.631,31.442 C42.7956612,32.0328341 40.8168986,32.0033161 39,31.358 L39,30 C39,29.4477153 39.4477153,29 40,29 L43,29 C43.5522847,29 44,28.5522847 44,28 C44,27.4477153 43.5522847,27 43,27 L40,27 C38.3431458,27 37,28.3431458 37,30 L37,30.311 C35.6568725,29.3568245 34.4033694,28.2823933 33.255,27.101 C32.0939849,25.9241675 30.6155088,25.110745 29,24.76 L29,24 C29,23.4477153 28.5522847,23 28,23 C27.4477153,23 27,23.4477153 27,24 L27,24.516 C24.372467,24.5212807 21.7505619,24.7592098 19.165,25.227 L17.823,25.418 C17.2196722,25.506902 16.6092719,25.5383762 16,25.512 L16,25 C16,24.4477153 15.5522847,24 15,24 C14.4477153,24 14,24.4477153 14,25 L14,25.048 C13.6348309,24.8754153 13.303848,24.638273 13.023,24.348 C12.4498589,23.6849786 12.0831393,22.8688101 11.968,22 L13,22 C14.6568542,22 16,20.6568542 16,19 C16,18.4477153 15.5522847,18 15,18 C14.4477153,18 14,18.4477153 14,19 C14,19.5522847 13.5522847,20 13,20 L11.879,20 C11.9061992,19.5907162 11.9593056,19.1835671 12.038,18.781 C12.169,18.213 12.538,16.681 12.771,16 L16,16 C16.5522847,16 17,15.5522847 17,15 C17,14.4477153 16.5522847,14 16,14 L13.682,14 C14.1890563,13.0533587 14.816612,12.176394 15.549,11.391 C16.2570998,10.6820426 17.0874279,10.1068092 18,9.693 L18,11 C18,12.6568542 19.3431458,14 21,14 C21.5522847,14 22,13.5522847 22,13 C22,12.4477153 21.5522847,12 21,12 C20.4477153,12 20,11.5522847 20,11 L20,8.91 C20.7885301,8.66394474 21.5896787,8.46031949 22.4,8.3 C23.252,8.128 24.124,7.963 25,7.806 L25,8 C25,8.55228475 25.4477153,9 26,9 C26.5522847,9 27,8.55228475 27,8 L27,7.473 C27.666,7.373 28.333,7.281 29,7.208 L29,8 C29,8.55228475 29.4477153,9 30,9 C30.5522847,9 31,8.55228475 31,8 L31,7.042 C31.063,7.042 31.127,7.03 31.189,7.026 C31.807,7 32.408,7 33,7.025 L33,11 C33,11.5522847 33.4477153,12 34,12 L36,12 C36.5522847,12 37,11.5522847 37,11 C37,10.4477153 36.5522847,10 36,10 L35,10 L35,7.243 C36.7496696,7.53951628 38.4415187,8.11055331 40.013,8.935 C40.013,8.958 40,8.977 40,9 L40,12 C40,12.5522847 40.4477153,13 41,13 C41.5522847,13 42,12.5522847 42,12 L42,10.09 C42.656,10.515 43.32,10.979 44,11.502 L44,14 C44,14.5522847 43.5522847,15 43,15 C42.4477153,15 42,15.4477153 42,16 C42,16.5522847 42.4477153,17 43,17 C44.6568542,17 46,15.6568542 46,14 L46,13.315 C47.0162913,14.4303449 47.7619136,15.7648686 48.179,17.215 C48.5180739,18.4540494 48.7469645,19.7206446 48.863,21 L47,21 C46.4477153,21 46,21.4477153 46,22 C46,22.5522847 46.4477153,23 47,23 L48.979,23 C48.986,23.327 49.002,23.652 48.997,23.982 C48.992,24.33 48.954,24.665 48.916,25 L47,25 C46.4477153,25 46,25.4477153 46,26 C46,26.5522847 46.4477153,27 47,27 L48.464,27 C48.2185545,27.7275643 47.8882799,28.4236918 47.48,29.074 Z" id="Shape"/>
                </g>
            </g>
        </g>
    </symbol>

    <symbol id="heart" viewBox="0 0 512 512">
        <g>
            <g><path d="m497 271h-14.425c18.967-29.266 29.425-59.332 29.425-93.485 0-38.852-13.376-75.248-37.665-102.485-25.319-28.393-60.242-44.03-98.335-44.03-39.241 0-74.885 16.199-103.079 46.844-6.831 7.426-12.445 14.858-16.921 21.533-4.476-6.675-10.09-14.107-16.921-21.533-28.194-30.645-63.838-46.844-103.079-46.844-38.093 0-73.016 15.637-98.335 44.03-24.289 27.237-37.665 63.634-37.665 102.485 0 34.153 10.458 64.219 29.425 93.485h-14.425c-8.284 0-15 6.716-15 15s6.716 15 15 15h36.9c31.71 37.53 76.476 75.605 130.176 121.271 20.429 17.372 41.553 35.335 64.047 55.018 2.827 2.474 6.352 3.711 9.877 3.711s7.05-1.237 9.878-3.711c22.494-19.683 43.618-37.646 64.047-55.018 53.7-45.666 98.465-83.741 130.175-121.271h36.9c8.284 0 15-6.716 15-15s-6.716-15-15-15zm-467-93.485c0-66.424 45.57-116.515 106-116.515 30.756 0 57.79 12.265 80.351 36.454 17.541 18.806 25.713 38.098 25.793 38.291 2.316 5.588 7.771 9.22 13.823 9.237h.041c6.049 0 11.516-3.653 13.849-9.237.08-.192 8.252-19.484 25.793-38.291 22.56-24.189 49.594-36.454 80.35-36.454 60.43 0 106 50.091 106 116.515 0 33.278-13.063 63.104-36.411 93.485h-60.319l-40.854-81.708c-2.54-5.082-7.734-8.292-13.416-8.292s-10.876 3.21-13.416 8.292l-31.584 63.167-16.584-33.167c-2.713-5.426-8.407-8.682-14.479-8.254-6.052.43-11.248 4.463-13.167 10.219l-15.017 45.051-31.386-104.618c-1.85-6.167-7.428-10.465-13.862-10.682-6.427-.202-12.288 3.697-14.55 9.725l-41.35 110.267h-59.194c-23.348-30.381-36.411-60.207-36.411-93.485zm280.49 221.902c-17.5 14.882-35.508 30.195-54.49 46.684-18.982-16.489-36.99-31.802-54.49-46.684-43.37-36.881-80.556-68.505-109.108-98.417h43.598c6.253 0 11.85-3.878 14.045-9.733l29.375-78.333 32.213 107.376c1.879 6.265 7.601 10.589 14.14 10.688.077.002.153.002.229.002 6.446 0 12.185-4.125 14.229-10.257l18.548-55.645 13.806 27.61c2.539 5.082 7.733 8.292 13.415 8.292s10.876-3.21 13.416-8.292l31.584-63.167 31.584 63.167c2.54 5.082 7.734 8.292 13.416 8.292h43.598c-28.552 29.912-65.738 61.536-109.108 98.417z"/></g>
        </g>
    </symbol>

    <symbol id="question" viewBox="0 0 512 512">
        <g>
           <g>
			<path d="M254.996,383.004c-11.776,0-21.333,9.557-21.333,21.333s9.557,21.333,21.333,21.333c11.776,0,21.333-9.557,21.333-21.333
				S266.772,383.004,254.996,383.004z"/>
			<path d="M436.016,73.984c-99.979-99.979-262.075-99.979-362.033,0.002c-99.978,99.978-99.978,262.073,0.004,362.031
				c99.954,99.978,262.05,99.978,362.029-0.002C535.995,336.059,535.995,173.964,436.016,73.984z M405.848,405.844
				c-83.318,83.318-218.396,83.318-301.691,0.004c-83.318-83.299-83.318-218.377-0.002-301.693
				c83.297-83.317,218.375-83.317,301.691,0S489.162,322.549,405.848,405.844z"/>
			<path d="M270.295,85.684c-53.025-9.308-100.632,31.063-100.632,83.987c0,11.782,9.551,21.333,21.333,21.333
				c11.782,0,21.333-9.551,21.333-21.333c0-26.507,23.776-46.67,50.584-41.964c16.882,2.968,31.079,17.165,34.048,34.052
				c3.299,18.783-5.487,36.533-21.417,45.315c-26.377,14.544-41.882,43.645-41.882,74.746v37.184
				c0,11.782,9.551,21.333,21.333,21.333c11.782,0,21.333-9.551,21.333-21.333V281.82c0-16.217,7.725-30.716,19.816-37.382
				c31.705-17.479,49.333-53.091,42.839-90.063C332.906,119.803,304.864,91.761,270.295,85.684z"/>
		</g>
        </g>
    </symbol>

    <symbol id="check" viewBox="0 0 511.999 511.999">
        <g>
           <g>
            <path d="M506.231,75.508c-7.689-7.69-20.158-7.69-27.849,0l-319.21,319.211L33.617,269.163c-7.689-7.691-20.158-7.691-27.849,0
                c-7.69,7.69-7.69,20.158,0,27.849l139.481,139.481c7.687,7.687,20.16,7.689,27.849,0l333.133-333.136
                C513.921,95.666,513.921,83.198,506.231,75.508z"/>
	        </g>
        </g>
    </symbol>

    <symbol id="vk" viewBox="0 0 511.962 511.962">
        <g>
           <g>
            <path d="M507.399,370.471c-1.376-2.304-9.888-20.8-50.848-58.816c-42.88-39.808-37.12-33.344,14.528-102.176
                c31.456-41.92,44.032-67.52,40.096-78.464c-3.744-10.432-26.88-7.68-26.88-7.68l-76.928,0.448c0,0-5.696-0.768-9.952,1.76
                c-4.128,2.496-6.784,8.256-6.784,8.256s-12.192,32.448-28.448,60.032c-34.272,58.208-48,61.28-53.6,57.664
                c-13.024-8.416-9.76-33.856-9.76-51.904c0-56.416,8.544-79.936-16.672-86.016c-8.384-2.016-14.528-3.36-35.936-3.584
                c-27.456-0.288-50.72,0.096-63.872,6.528c-8.768,4.288-15.52,13.856-11.392,14.4c5.088,0.672,16.608,3.104,22.72,11.424
                c7.904,10.72,7.616,34.848,7.616,34.848s4.544,66.4-10.592,74.656c-10.4,5.664-24.64-5.888-55.2-58.72
                c-15.648-27.04-27.488-56.96-27.488-56.96s-2.272-5.568-6.336-8.544c-4.928-3.616-11.84-4.768-11.84-4.768l-73.152,0.448
                c0,0-10.976,0.32-15.008,5.088c-3.584,4.256-0.288,13.024-0.288,13.024s57.28,133.984,122.112,201.536
                c59.488,61.92,127.008,57.856,127.008,57.856h30.592c0,0,9.248-1.024,13.952-6.112c4.352-4.672,4.192-13.44,4.192-13.44
                s-0.608-41.056,18.464-47.104c18.784-5.952,42.912,39.68,68.48,57.248c19.328,13.28,34.016,10.368,34.016,10.368l68.384-0.96
                C488.583,400.807,524.359,398.599,507.399,370.471z"/>
            </g>
        </g>
    </symbol>

    <symbol id="facebook" viewBox="0 0 24 24" >
        <g>
            <path d="m15.997 3.985h2.191v-3.816c-.378-.052-1.678-.169-3.192-.169-3.159 0-5.323 1.987-5.323 5.639v3.361h-3.486v4.266h3.486v10.734h4.274v-10.733h3.345l.531-4.266h-3.877v-2.939c.001-1.233.333-2.077 2.051-2.077z"/>
        </g>
    </symbol>

    <symbol id="youtube" viewBox="0 0 512 512" >
        <g>    
            <path d="M490.24,113.92c-13.888-24.704-28.96-29.248-59.648-30.976C399.936,80.864,322.848,80,256.064,80
                c-66.912,0-144.032,0.864-174.656,2.912c-30.624,1.76-45.728,6.272-59.744,31.008C7.36,138.592,0,181.088,0,255.904
                C0,255.968,0,256,0,256c0,0.064,0,0.096,0,0.096v0.064c0,74.496,7.36,117.312,21.664,141.728
                c14.016,24.704,29.088,29.184,59.712,31.264C112.032,430.944,189.152,432,256.064,432c66.784,0,143.872-1.056,174.56-2.816
                c30.688-2.08,45.76-6.56,59.648-31.264C504.704,373.504,512,330.688,512,256.192c0,0,0-0.096,0-0.16c0,0,0-0.064,0-0.096
                C512,181.088,504.704,138.592,490.24,113.92z M192,352V160l160,96L192,352z"/>
        </g>
    </symbol>

    <symbol id="instagram" viewBox="0 0 511 511.9" >
        <g>    
            <path d="m510.949219 150.5c-1.199219-27.199219-5.597657-45.898438-11.898438-62.101562-6.5-17.199219-16.5-32.597657-29.601562-45.398438-12.800781-13-28.300781-23.101562-45.300781-29.5-16.296876-6.300781-34.898438-10.699219-62.097657-11.898438-27.402343-1.300781-36.101562-1.601562-105.601562-1.601562s-78.199219.300781-105.5 1.5c-27.199219 1.199219-45.898438 5.601562-62.097657 11.898438-17.203124 6.5-32.601562 16.5-45.402343 29.601562-13 12.800781-23.097657 28.300781-29.5 45.300781-6.300781 16.300781-10.699219 34.898438-11.898438 62.097657-1.300781 27.402343-1.601562 36.101562-1.601562 105.601562s.300781 78.199219 1.5 105.5c1.199219 27.199219 5.601562 45.898438 11.902343 62.101562 6.5 17.199219 16.597657 32.597657 29.597657 45.398438 12.800781 13 28.300781 23.101562 45.300781 29.5 16.300781 6.300781 34.898438 10.699219 62.101562 11.898438 27.296876 1.203124 36 1.5 105.5 1.5s78.199219-.296876 105.5-1.5c27.199219-1.199219 45.898438-5.597657 62.097657-11.898438 34.402343-13.300781 61.601562-40.5 74.902343-74.898438 6.296876-16.300781 10.699219-34.902343 11.898438-62.101562 1.199219-27.300781 1.5-36 1.5-105.5s-.101562-78.199219-1.300781-105.5zm-46.097657 209c-1.101562 25-5.300781 38.5-8.800781 47.5-8.601562 22.300781-26.300781 40-48.601562 48.601562-9 3.5-22.597657 7.699219-47.5 8.796876-27 1.203124-35.097657 1.5-103.398438 1.5s-76.5-.296876-103.402343-1.5c-25-1.097657-38.5-5.296876-47.5-8.796876-11.097657-4.101562-21.199219-10.601562-29.398438-19.101562-8.5-8.300781-15-18.300781-19.101562-29.398438-3.5-9-7.699219-22.601562-8.796876-47.5-1.203124-27-1.5-35.101562-1.5-103.402343s.296876-76.5 1.5-103.398438c1.097657-25 5.296876-38.5 8.796876-47.5 4.101562-11.101562 10.601562-21.199219 19.203124-29.402343 8.296876-8.5 18.296876-15 29.398438-19.097657 9-3.5 22.601562-7.699219 47.5-8.800781 27-1.199219 35.101562-1.5 103.398438-1.5 68.402343 0 76.5.300781 103.402343 1.5 25 1.101562 38.5 5.300781 47.5 8.800781 11.097657 4.097657 21.199219 10.597657 29.398438 19.097657 8.5 8.300781 15 18.300781 19.101562 29.402343 3.5 9 7.699219 22.597657 8.800781 47.5 1.199219 27 1.5 35.097657 1.5 103.398438s-.300781 76.300781-1.5 103.300781zm0 0"/><path d="m256.449219 124.5c-72.597657 0-131.5 58.898438-131.5 131.5s58.902343 131.5 131.5 131.5c72.601562 0 131.5-58.898438 131.5-131.5s-58.898438-131.5-131.5-131.5zm0 216.800781c-47.097657 0-85.300781-38.199219-85.300781-85.300781s38.203124-85.300781 85.300781-85.300781c47.101562 0 85.300781 38.199219 85.300781 85.300781s-38.199219 85.300781-85.300781 85.300781zm0 0"/><path d="m423.851562 119.300781c0 16.953125-13.746093 30.699219-30.703124 30.699219-16.953126 0-30.699219-13.746094-30.699219-30.699219 0-16.957031 13.746093-30.699219 30.699219-30.699219 16.957031 0 30.703124 13.742188 30.703124 30.699219zm0 0"/>
        </g>
    </symbol>

    <symbol id="odnoklassniki" viewBox="0 0 24 24">
        <g>    
            <path d="m4.721 12.881c-.613 1.205.083 1.781 1.671 2.765 1.35.834 3.215 1.139 4.413 1.261-.491.472 1.759-1.692-4.721 4.541-1.374 1.317.838 3.43 2.211 2.141l3.717-3.585c1.423 1.369 2.787 2.681 3.717 3.59 1.374 1.294 3.585-.801 2.226-2.141-.102-.097-5.037-4.831-4.736-4.541 1.213-.122 3.05-.445 4.384-1.261l-.001-.001c1.588-.989 2.284-1.564 1.68-2.769-.365-.684-1.349-1.256-2.659-.267 0 0-1.769 1.355-4.622 1.355-2.854 0-4.622-1.355-4.622-1.355-1.309-.994-2.297-.417-2.658.267z"/><path d="m11.999 12.142c3.478 0 6.318-2.718 6.318-6.064 0-3.36-2.84-6.078-6.318-6.078-3.479 0-6.319 2.718-6.319 6.078 0 3.346 2.84 6.064 6.319 6.064zm0-9.063c1.709 0 3.103 1.341 3.103 2.999 0 1.644-1.394 2.985-3.103 2.985s-3.103-1.341-3.103-2.985c-.001-1.659 1.393-2.999 3.103-2.999z"/>
        </g>
    </symbol>
</svg>    